<svg width="10" height="11" viewBox="0 0 10 11" fill="none" xmlns="http://www.w3.org/2000/svg">
<g clip-path="url(#clip0_1257_5882)">
<path d="M0.832682 4.25005H2.08268V9.25005H0.832682C0.722175 9.25005 0.616195 9.20615 0.538054 9.12801C0.459914 9.04987 0.416016 8.94389 0.416016 8.83338V4.66671C0.416016 4.55621 0.459914 4.45023 0.538054 4.37209C0.616195 4.29395 0.722175 4.25005 0.832682 4.25005ZM3.0381 3.7113L5.70477 1.04463C5.74021 1.00909 5.78729 0.987533 5.83736 0.983935C5.88742 0.980337 5.93711 0.994936 5.97727 1.02505L6.33268 1.29171C6.43139 1.36582 6.50595 1.46749 6.54696 1.5839C6.58796 1.70032 6.59358 1.82627 6.5631 1.94588L6.08268 3.83338H8.74935C8.97036 3.83338 9.18232 3.92118 9.3386 4.07746C9.49488 4.23374 9.58268 4.4457 9.58268 4.66671V5.54338C9.58279 5.65228 9.56156 5.76015 9.52018 5.86088L8.2306 8.99213C8.19914 9.06847 8.14571 9.13374 8.07709 9.17966C8.00847 9.22558 7.92775 9.25008 7.84518 9.25005H3.33268C3.22218 9.25005 3.11619 9.20615 3.03805 9.12801C2.95991 9.04987 2.91602 8.94389 2.91602 8.83338V4.00588C2.91604 3.89538 2.95995 3.78942 3.0381 3.7113Z" fill="#F9F9F9"/>
</g>
<defs>
<clipPath id="clip0_1257_5882">
<rect width="10" height="10" fill="white" transform="translate(0 0.5)"/>
</clipPath>
</defs>
</svg>
