<svg width="18" height="18" viewBox="0 0 18 18" fill="none" xmlns="http://www.w3.org/2000/svg">
  <g clip-path="url(#clip0_9925_1575)">
    <path opacity="0.55" d="M17.7807 3.08996C17.4507 2.44296 16.7787 1.99996 16.0007 1.99996H10.8357C10.3007 1.99996 9.7897 2.21396 9.4137 2.59296L2.5937 9.48296C2.5937 9.48496 2.5937 9.48596 2.5917 9.48596C2.3477 9.73896 2.1797 10.04 2.0917 10.36L0.740696 8.05496C0.180696 7.10196 0.500696 5.87696 1.4527 5.31796L9.8237 0.424957C10.2837 0.154957 10.8337 0.0799574 11.3507 0.219957L16.3407 1.55696C17.0957 1.75996 17.6337 2.37096 17.7807 3.08996Z" fill="#737373" fill-opacity="0.55" />
    <path d="M10.8357 2H16.0007C17.1057 2 18.0007 2.895 18.0007 4V9.172C18.0007 9.702 17.7907 10.212 17.4147 10.586L10.5967 17.404C9.81967 18.182 8.56067 18.186 7.77667 17.414L2.61067 12.314C1.82467 11.539 1.81667 10.274 2.59067 9.486C2.59267 9.486 2.59367 9.486 2.59367 9.484L9.41367 2.594C9.79067 2.214 10.3007 2 10.8357 2ZM13.5007 8C14.3287 8 15.0007 7.328 15.0007 6.5C15.0007 5.672 14.3287 5 13.5007 5C12.6727 5 12.0007 5.672 12.0007 6.5C12.0007 7.328 12.6727 8 13.5007 8Z" fill="#666562" />
  </g>
  <defs>
    <clipPath id="clip0_9925_1575">
      <rect width="18" height="18" fill="white" />
    </clipPath>
  </defs>
</svg>