<svg width="33" height="32" viewBox="0 0 33 32" fill="none" xmlns="http://www.w3.org/2000/svg">
<path d="M16.5003 29.3334C9.13633 29.3334 3.16699 23.3641 3.16699 16.0001C3.16699 8.63608 9.13633 2.66675 16.5003 2.66675C23.8643 2.66675 29.8337 8.63608 29.8337 16.0001C29.8337 23.3641 23.8643 29.3334 16.5003 29.3334ZM16.5003 26.6667C19.3293 26.6667 22.0424 25.5429 24.0428 23.5426C26.0432 21.5422 27.167 18.8291 27.167 16.0001C27.167 13.1711 26.0432 10.458 24.0428 8.45761C22.0424 6.45722 19.3293 5.33341 16.5003 5.33341C13.6713 5.33341 10.9582 6.45722 8.95785 8.45761C6.95747 10.458 5.83366 13.1711 5.83366 16.0001C5.83366 18.8291 6.95747 21.5422 8.95785 23.5426C10.9582 25.5429 13.6713 26.6667 16.5003 26.6667ZM9.83366 22.6667C9.83366 20.8986 10.536 19.2029 11.7863 17.9527C13.0365 16.7025 14.7322 16.0001 16.5003 16.0001C18.2684 16.0001 19.9641 16.7025 21.2144 17.9527C22.4646 19.2029 23.167 20.8986 23.167 22.6667H20.5003C20.5003 21.6059 20.0789 20.5885 19.3288 19.8383C18.5786 19.0882 17.5612 18.6667 16.5003 18.6667C15.4395 18.6667 14.422 19.0882 13.6719 19.8383C12.9218 20.5885 12.5003 21.6059 12.5003 22.6667H9.83366ZM11.167 14.6667C10.6366 14.6667 10.1279 14.456 9.75278 14.081C9.37771 13.7059 9.16699 13.1972 9.16699 12.6667C9.16699 12.1363 9.37771 11.6276 9.75278 11.2525C10.1279 10.8775 10.6366 10.6667 11.167 10.6667C11.6974 10.6667 12.2061 10.8775 12.5812 11.2525C12.9563 11.6276 13.167 12.1363 13.167 12.6667C13.167 13.1972 12.9563 13.7059 12.5812 14.081C12.2061 14.456 11.6974 14.6667 11.167 14.6667ZM21.8337 14.6667C21.3032 14.6667 20.7945 14.456 20.4194 14.081C20.0444 13.7059 19.8337 13.1972 19.8337 12.6667C19.8337 12.1363 20.0444 11.6276 20.4194 11.2525C20.7945 10.8775 21.3032 10.6667 21.8337 10.6667C22.3641 10.6667 22.8728 10.8775 23.2479 11.2525C23.6229 11.6276 23.8337 12.1363 23.8337 12.6667C23.8337 13.1972 23.6229 13.7059 23.2479 14.081C22.8728 14.456 22.3641 14.6667 21.8337 14.6667Z" fill="#181A1C"/>
</svg>
