<svg width="20" height="20" viewBox="0 0 20 20" fill="none" xmlns="http://www.w3.org/2000/svg">
  <g clip-path="url(#clip0_1342_7633)">
    <path d="M9.16688 16.6209C7.26354 16.4057 5.51464 15.4705 4.27881 14.007C3.04297 12.5436 2.41384 10.6627 2.52042 8.75024C2.62699 6.83773 3.4612 5.03847 4.85198 3.72137C6.24277 2.40427 8.08474 1.66916 10.0002 1.66675C11.918 1.66535 13.7635 2.3987 15.1573 3.71603C16.5511 5.03337 17.3873 6.8346 17.4941 8.74945C17.6008 10.6643 16.9699 12.5473 15.7311 14.0113C14.4922 15.4754 12.7397 16.4092 10.8335 16.6209V20.0001H9.16688V16.6209ZM10.0002 15.0001C10.7663 15.0001 11.5248 14.8492 12.2325 14.556C12.9403 14.2629 13.5833 13.8332 14.125 13.2915C14.6667 12.7499 15.0964 12.1068 15.3895 11.3991C15.6827 10.6913 15.8335 9.9328 15.8335 9.16675C15.8335 8.40071 15.6827 7.64216 15.3895 6.93443C15.0964 6.2267 14.6667 5.58364 14.125 5.04196C13.5833 4.50029 12.9403 4.07061 12.2325 3.77745C11.5248 3.4843 10.7663 3.33342 10.0002 3.33342C8.45311 3.33342 6.96938 3.948 5.87542 5.04196C4.78146 6.13592 4.16688 7.61965 4.16688 9.16675C4.16688 10.7138 4.78146 12.1976 5.87542 13.2915C6.96938 14.3855 8.45311 15.0001 10.0002 15.0001Z" fill="#181A1C" />
  </g>
  <defs>
    <clipPath id="clip0_1342_7633">
      <rect width="20" height="20" fill="white" />
    </clipPath>
  </defs>
</svg>