<svg width="24" height="24" viewBox="0 0 24 24" fill="none" xmlns="http://www.w3.org/2000/svg">
<path fill-rule="evenodd" clip-rule="evenodd" d="M10.9957 8.59831C10.9957 7.87371 11.5943 7.54816 12.5604 7.54816C14.1614 7.58278 15.7325 7.98903 17.1496 8.73483V4.43971C15.6916 3.86795 14.137 3.5827 12.5709 3.59959C8.83237 3.59959 6.33301 5.55287 6.33301 8.85035C6.33301 13.9541 13.348 13.1245 13.348 15.3298C13.348 16.1804 12.6024 16.4535 11.5838 16.4535C9.78925 16.3545 8.04218 15.8404 6.48003 14.9517V19.3519C8.07181 20.0397 9.78674 20.397 11.5208 20.402C15.3538 20.402 18.0002 18.5118 18.0002 15.1513C18.0317 9.67997 10.9957 10.6671 10.9957 8.59831Z" fill="#181A1C"/>
</svg>
